<?xml version="1.0" encoding="UTF-8"?>
<svg width="67px" height="67px" viewBox="0 0 67 67" version="1.1" xmlns="http://www.w3.org/2000/svg" xmlns:xlink="http://www.w3.org/1999/xlink">
    <!-- Generator: Sketch 55.2 (78181) - https://sketchapp.com -->
    <title>Group 5</title>
    <desc>Created with Sketch.</desc>
    <g id="Page-1" stroke="none" stroke-width="1" fill="none" fill-rule="evenodd">
        <g id="whatsapp_layout5" transform="translate(-106.000000, -10.000000)" fill-rule="nonzero">
            <g id="Group-5" transform="translate(106.000000, 10.000000)">
                <circle id="Oval" fill="#25D366" cx="33.2509505" cy="33.2509505" r="33.2509505"></circle>
                <path d="M44.5805451,21.093783 C38.7227466,15.177003 29.3384607,14.5184201 22.6993291,19.558174 C16.0601976,24.5979278 14.247872,33.7558402 18.4735534,40.9115576 L16.1761381,49.4270886 L24.9585301,47.1376332 C27.3874361,48.4492187 30.1087394,49.1365848 32.87417,49.1370218 L32.87417,49.1370218 C39.5699273,49.1330756 45.6046124,45.1300309 48.1664296,38.9930626 C50.7282469,32.8560943 49.3131726,25.7926179 44.5805451,21.093783 L44.5805451,21.093783 Z M32.87417,46.3192306 L32.87417,46.3192306 C30.40845,46.318457 27.9882841,45.6600968 25.8670534,44.4130776 L25.3657992,44.1126514 L20.1444008,45.4697494 L21.5332928,40.4350194 L21.2095661,39.917043 C17.5618821,34.0323954 18.9195145,26.3721536 24.3717858,22.0746822 C29.8240572,17.7772108 37.6529006,18.1966872 42.6068565,23.0517335 C46.5032421,26.9640978 47.6554406,32.8125127 45.5305979,37.8922788 C43.4057552,42.9720448 38.418065,46.292968 32.87417,46.3192306 Z M40.424312,36.0943777 C40.0066001,35.9597038 37.9702548,34.9237512 37.5943141,34.8097964 C37.4455148,34.7075983 37.2603888,34.6718483 37.0838109,34.7112123 C36.907233,34.7505763 36.7553234,34.8614607 36.6649052,35.0169869 C36.3933925,35.4210085 35.6206255,36.3533659 35.3491128,36.6330731 C35.2459661,36.767932 35.0918348,36.8552222 34.9223319,36.8747746 C34.752829,36.8943271 34.5826198,36.8444502 34.4510323,36.7366683 C33.2279688,36.2427669 32.1007694,35.5416941 31.1197802,34.664763 C30.2179121,33.83147 29.4438973,32.8716664 28.8223649,31.8158932 C28.7302218,31.6812807 28.6981556,31.514915 28.733737,31.3560752 C28.7693185,31.1972355 28.8693938,31.0600005 29.0103352,30.9767715 C29.1983056,30.7903 29.4176043,30.5002333 29.6264602,30.2619641 C29.7959111,30.0555355 29.9331944,29.8250624 30.0337293,29.5782354 C30.1544046,29.3550031 30.1544046,29.0866604 30.0337293,28.863428 C29.8979729,28.7080351 29.0625492,26.6361298 28.7283797,25.8384462 C28.6998255,25.6225267 28.5857022,25.4268005 28.411269,25.2945884 C28.2368359,25.1623764 28.016479,25.1045825 27.7989708,25.1339984 L27.0053183,25.1339984 C26.5875394,25.1323769 26.1873922,25.3008961 25.8983818,25.6001771 C24.941341,26.4968291 24.4136148,27.7547794 24.4468331,29.060259 C24.5820093,30.6092255 25.1699585,32.0853797 26.1385661,33.307665 C26.3474221,33.5770127 29.0521064,37.7311829 33.2083395,39.523381 C34.1899624,39.9481216 34.9627293,40.1967503 35.5684115,40.3935813 C36.4107167,40.6468209 37.3006183,40.7035473 38.1686679,40.5593337 C39.3308544,40.3234976 40.3413145,39.6176859 40.9568946,38.6117427 C41.2198166,37.9864121 41.2888948,37.2975324 41.1553078,36.6330731 C40.9371148,36.4037536 40.6641465,36.2327273 40.3616552,36.1358158 L40.3616552,36.1358158 L40.424312,36.0943777 Z" id="Shape" fill="#FFFFFF"></path>
            </g>
        </g>
    </g>
</svg>